<svg xmlns="http://www.w3.org/2000/svg" xmlns:xlink="http://www.w3.org/1999/xlink" width="316.55999755859375" viewBox="2.4800000190734863 4.5 316.55999755859375 27" overflow="visible" style="overflow: visible;"><path stroke="none" fill="#516fca" d="M6.37 8.28L6.37 27.72L6.73 27.72L6.73 18.18L20.56 18.18L20.56 27.72L20.92 27.72L20.92 8.28L20.56 8.28L20.56 17.82L6.73 17.82L6.73 8.28L6.37 8.28ZM9.36 30.96L9.36 30.96L3.78 30.96L3.78 30.96Q3.10 30.96 2.79 30.65L2.79 30.65L2.79 30.65Q2.48 30.35 2.48 29.66L2.48 29.66L2.48 6.34L2.48 6.34Q2.48 5.65 2.79 5.35L2.79 5.35L2.79 5.35Q3.10 5.04 3.78 5.04L3.78 5.04L9.36 5.04L9.36 5.04Q10.04 5.04 10.35 5.35L10.35 5.35L10.35 5.35Q10.66 5.65 10.66 6.34L10.66 6.34L10.66 14.15L16.67 14.15L16.67 6.34L16.67 6.34Q16.67 5.65 16.97 5.35L16.97 5.35L16.97 5.35Q17.28 5.04 17.96 5.04L17.96 5.04L23.54 5.04L23.54 5.04Q24.23 5.04 24.53 5.35L24.53 5.35L24.53 5.35Q24.84 5.65 24.84 6.34L24.84 6.34L24.84 29.66L24.84 29.66Q24.84 30.35 24.53 30.65L24.53 30.65L24.53 30.65Q24.23 30.96 23.54 30.96L23.54 30.96L17.96 30.96L17.96 30.96Q17.28 30.96 16.97 30.65L16.97 30.65L16.97 30.65Q16.67 30.35 16.67 29.66L16.67 29.66L16.67 21.67L10.66 21.67L10.66 29.66L10.66 29.66Q10.66 30.35 10.35 30.65L10.35 30.65L10.35 30.65Q10.04 30.96 9.36 30.96ZM55.77 11.88L55.77 24.16L55.77 24.16Q55.77 25.81 55.28 27.16L55.28 27.16L55.28 27.16Q54.80 28.51 53.55 29.47L53.55 29.47L53.55 29.47Q52.31 30.42 50.13 30.96L50.13 30.96L50.13 30.96Q47.96 31.50 44.61 31.50L44.61 31.50L44.61 31.50Q41.26 31.50 39.06 30.96L39.06 30.96L39.06 30.96Q36.87 30.42 35.63 29.47L35.63 29.47L35.63 29.47Q34.38 28.51 33.90 27.16L33.90 27.16L33.90 27.16Q33.41 25.81 33.41 24.16L33.41 24.16L33.41 11.88L33.41 11.88Q33.41 10.22 33.90 8.87L33.90 8.87L33.90 8.87Q34.38 7.52 35.63 6.55L35.63 6.55L35.63 6.55Q36.87 5.58 39.06 5.04L39.06 5.04L39.06 5.04Q41.26 4.50 44.61 4.50L44.61 4.50L44.61 4.50Q47.96 4.50 50.13 5.04L50.13 5.04L50.13 5.04Q52.31 5.58 53.55 6.55L53.55 6.55L53.55 6.55Q54.80 7.52 55.28 8.87L55.28 8.87L55.28 8.87Q55.77 10.22 55.77 11.88L55.77 11.88ZM51.84 23.33L51.84 23.33L51.84 12.71L51.84 12.71Q51.84 10.55 50.30 9.20L50.30 9.20L50.30 9.20Q48.75 7.85 44.54 7.85L44.54 7.85L44.54 7.85Q40.32 7.85 38.81 9.20L38.81 9.20L38.81 9.20Q37.30 10.55 37.30 12.71L37.30 12.71L37.30 23.33L37.30 23.33Q37.30 25.49 38.81 26.84L38.81 26.84L38.81 26.84Q40.32 28.19 44.54 28.19L44.54 28.19L44.54 28.19Q48.75 28.19 50.30 26.84L50.30 26.84L50.30 26.84Q51.84 25.49 51.84 23.33ZM37.66 23.33L37.66 23.33L37.66 12.71L37.66 12.71Q37.66 10.69 39.10 9.45L39.10 9.45L39.10 9.45Q40.54 8.21 44.54 8.21L44.54 8.21L44.54 8.21Q48.53 8.21 50.01 9.45L50.01 9.45L50.01 9.45Q51.48 10.69 51.48 12.71L51.48 12.71L51.48 23.33L51.48 23.33Q51.48 25.34 50.01 26.59L50.01 26.59L50.01 26.59Q48.53 27.83 44.54 27.83L44.54 27.83L44.54 27.83Q40.54 27.83 39.10 26.59L39.10 26.59L39.10 26.59Q37.66 25.34 37.66 23.33ZM41.58 13.18L41.58 22.86L41.58 22.86Q41.58 23.58 42.12 24.07L42.12 24.07L42.12 24.07Q42.66 24.55 44.61 24.55L44.61 24.55L44.61 24.55Q46.55 24.55 47.09 24.07L47.09 24.07L47.09 24.07Q47.63 23.58 47.63 22.86L47.63 22.86L47.63 13.18L47.63 13.18Q47.63 12.49 47.09 12.01L47.09 12.01L47.09 12.01Q46.55 11.52 44.61 11.52L44.61 11.52L44.61 11.52Q42.66 11.52 42.12 12.01L42.12 12.01L42.12 12.01Q41.58 12.49 41.58 13.18L41.58 13.18ZM77.77 30.96L77.77 30.96L65.64 30.96L65.64 30.96Q64.95 30.96 64.65 30.65L64.65 30.65L64.65 30.65Q64.34 30.35 64.34 29.66L64.34 29.66L64.34 6.34L64.34 6.34Q64.34 5.65 64.65 5.35L64.65 5.35L64.65 5.35Q64.95 5.04 65.64 5.04L65.64 5.04L77.77 5.04L77.77 5.04Q82.27 5.04 84.45 6.84L84.45 6.84L84.45 6.84Q86.62 8.64 86.62 12.38L86.62 12.38L86.62 23.62L86.62 23.62Q86.62 27.36 84.45 29.16L84.45 29.16L84.45 29.16Q82.27 30.96 77.77 30.96ZM68.26 8.28L68.26 27.72L76.98 27.72L76.98 27.72Q78.81 27.72 79.96 27.34L79.96 27.34L79.96 27.34Q81.12 26.96 81.73 26.32L81.73 26.32L81.73 26.32Q82.34 25.67 82.54 24.77L82.54 24.77L82.54 24.77Q82.74 23.87 82.74 22.82L82.74 22.82L82.74 13.28L82.74 13.28Q82.74 12.24 82.52 11.32L82.52 11.32L82.52 11.32Q82.30 10.40 81.69 9.74L81.69 9.74L81.69 9.74Q81.08 9.07 79.95 8.68L79.95 8.68L79.95 8.68Q78.81 8.28 76.98 8.28L76.98 8.28L68.26 8.28ZM68.62 8.64L76.98 8.64L76.98 8.64Q78.67 8.64 79.73 9.00L79.73 9.00L79.73 9.00Q80.79 9.36 81.37 9.97L81.37 9.97L81.37 9.97Q81.94 10.58 82.16 11.45L82.16 11.45L82.16 11.45Q82.38 12.31 82.38 13.28L82.38 13.28L82.38 22.82L82.38 22.82Q82.38 23.80 82.18 24.64L82.18 24.64L82.18 24.64Q81.98 25.49 81.40 26.08L81.40 26.08L81.40 26.08Q80.83 26.68 79.77 27.02L79.77 27.02L79.77 27.02Q78.70 27.36 76.98 27.36L76.98 27.36L68.62 27.36L68.62 8.64ZM76.80 11.92L72.51 11.92L72.51 24.16L76.80 24.16L76.80 24.16Q77.66 24.16 78.07 23.72L78.07 23.72L78.07 23.72Q78.49 23.29 78.49 22.39L78.49 22.39L78.49 13.64L78.49 13.64Q78.49 12.74 78.07 12.33L78.07 12.33L78.07 12.33Q77.66 11.92 76.80 11.92L76.80 11.92ZM117.16 11.88L117.16 24.16L117.16 24.16Q117.16 25.81 116.67 27.16L116.67 27.16L116.67 27.16Q116.18 28.51 114.94 29.47L114.94 29.47L114.94 29.47Q113.70 30.42 111.52 30.96L111.52 30.96L111.52 30.96Q109.34 31.50 106.00 31.50L106.00 31.50L106.00 31.50Q102.65 31.50 100.45 30.96L100.45 30.96L100.45 30.96Q98.26 30.42 97.01 29.47L97.01 29.47L97.01 29.47Q95.77 28.51 95.29 27.16L95.29 27.16L95.29 27.16Q94.80 25.81 94.80 24.16L94.80 24.16L94.80 11.88L94.80 11.88Q94.80 10.22 95.29 8.87L95.29 8.87L95.29 8.87Q95.77 7.52 97.01 6.55L97.01 6.55L97.01 6.55Q98.26 5.58 100.45 5.04L100.45 5.04L100.45 5.04Q102.65 4.50 106.00 4.50L106.00 4.50L106.00 4.50Q109.34 4.50 111.52 5.04L111.52 5.04L111.52 5.04Q113.70 5.58 114.94 6.55L114.94 6.55L114.94 6.55Q116.18 7.52 116.67 8.87L116.67 8.87L116.67 8.87Q117.16 10.22 117.16 11.88L117.16 11.88ZM113.23 23.33L113.23 23.33L113.23 12.71L113.23 12.71Q113.23 10.55 111.68 9.20L111.68 9.20L111.68 9.20Q110.14 7.85 105.92 7.85L105.92 7.85L105.92 7.85Q101.71 7.85 100.20 9.20L100.20 9.20L100.20 9.20Q98.69 10.55 98.69 12.71L98.69 12.71L98.69 23.33L98.69 23.33Q98.69 25.49 100.20 26.84L100.20 26.84L100.20 26.84Q101.71 28.19 105.92 28.19L105.92 28.19L105.92 28.19Q110.14 28.19 111.68 26.84L111.68 26.84L111.68 26.84Q113.23 25.49 113.23 23.33ZM99.05 23.33L99.05 23.33L99.05 12.71L99.05 12.71Q99.05 10.69 100.49 9.45L100.49 9.45L100.49 9.45Q101.93 8.21 105.92 8.21L105.92 8.21L105.92 8.21Q109.92 8.21 111.40 9.45L111.40 9.45L111.40 9.45Q112.87 10.69 112.87 12.71L112.87 12.71L112.87 23.33L112.87 23.33Q112.87 25.34 111.40 26.59L111.40 26.59L111.40 26.59Q109.92 27.83 105.92 27.83L105.92 27.83L105.92 27.83Q101.93 27.83 100.49 26.59L100.49 26.59L100.49 26.59Q99.05 25.34 99.05 23.33ZM102.97 13.18L102.97 22.86L102.97 22.86Q102.97 23.58 103.51 24.07L103.51 24.07L103.51 24.07Q104.05 24.55 106.00 24.55L106.00 24.55L106.00 24.55Q107.94 24.55 108.48 24.07L108.48 24.07L108.48 24.07Q109.02 23.58 109.02 22.86L109.02 22.86L109.02 13.18L109.02 13.18Q109.02 12.49 108.48 12.01L108.48 12.01L108.48 12.01Q107.94 11.52 106.00 11.52L106.00 11.52L106.00 11.52Q104.05 11.52 103.51 12.01L103.51 12.01L103.51 12.01Q102.97 12.49 102.97 13.18L102.97 13.18ZM132.60 30.96L132.60 30.96L127.02 30.96L127.02 30.96Q126.34 30.96 126.03 30.65L126.03 30.65L126.03 30.65Q125.73 30.35 125.73 29.66L125.73 29.66L125.73 6.34L125.73 6.34Q125.73 5.65 126.03 5.35L126.03 5.35L126.03 5.35Q126.34 5.04 127.02 5.04L127.02 5.04L143.08 5.04L143.08 5.04Q143.76 5.04 144.07 5.35L144.07 5.35L144.07 5.35Q144.38 5.65 144.38 6.34L144.38 6.34L144.38 10.62L144.38 10.62Q144.38 11.30 144.07 11.61L144.07 11.61L144.07 11.61Q143.76 11.92 143.08 11.92L143.08 11.92L133.90 11.92L133.90 15.66L140.16 15.66L140.16 15.66Q140.85 15.66 141.15 15.97L141.15 15.97L141.15 15.97Q141.46 16.27 141.46 16.96L141.46 16.96L141.46 21.28L141.46 21.28Q141.46 21.96 141.15 22.27L141.15 22.27L141.15 22.27Q140.85 22.57 140.16 22.57L140.16 22.57L133.90 22.57L133.90 29.66L133.90 29.66Q133.90 30.35 133.59 30.65L133.59 30.65L133.59 30.65Q133.29 30.96 132.60 30.96ZM129.65 8.28L129.65 27.72L130.01 27.72L130.01 19.30L138.22 19.30L138.22 18.94L130.01 18.94L130.01 8.64L141.14 8.64L141.14 8.28L129.65 8.28ZM155.61 21.17L155.61 20.05L155.61 20.05Q155.61 19.08 155.77 18.25L155.77 18.25L155.77 18.25Q155.94 17.42 156.19 16.70L156.19 16.70L158.49 10.80L158.49 10.80Q158.85 9.90 159.28 9.27L159.28 9.27L159.28 9.27Q159.72 8.64 160.80 8.64L160.80 8.64L164.32 8.64L164.32 8.64Q165.33 8.64 165.76 9.27L165.76 9.27L165.76 9.27Q166.20 9.90 166.59 10.84L166.59 10.84L169.08 16.70L169.08 16.70Q169.33 17.42 169.49 18.25L169.49 18.25L169.49 18.25Q169.65 19.08 169.65 20.05L169.65 20.05L169.65 21.17L155.61 21.17ZM161.37 12.60L161.37 12.60L159.68 18.07L165.33 18.07L163.64 12.60L163.64 12.60Q163.50 12.28 163.33 12.13L163.33 12.13L163.33 12.13Q163.17 11.99 162.96 11.99L162.96 11.99L162.06 11.99L162.06 11.99Q161.84 11.99 161.68 12.13L161.68 12.13L161.68 12.13Q161.52 12.28 161.37 12.60ZM169.65 21.53L169.65 27.72L170.01 27.72L170.01 20.05L170.01 20.05Q170.01 19.04 169.85 18.20L169.85 18.20L169.85 18.20Q169.69 17.35 169.40 16.56L169.40 16.56L166.92 10.69L166.92 10.69Q166.48 9.65 166.00 8.96L166.00 8.96L166.00 8.96Q165.51 8.28 164.32 8.28L164.32 8.28L160.80 8.28L160.80 8.28Q159.57 8.28 159.07 8.96L159.07 8.96L159.07 8.96Q158.56 9.65 158.17 10.66L158.17 10.66L155.86 16.56L155.86 16.56Q155.58 17.35 155.41 18.20L155.41 18.20L155.41 18.20Q155.25 19.04 155.25 20.05L155.25 20.05L155.25 27.72L155.61 27.72L155.61 21.53L169.65 21.53ZM159.32 24.62L159.32 29.66L159.32 29.66Q159.32 30.35 159.01 30.65L159.01 30.65L159.01 30.65Q158.71 30.96 158.02 30.96L158.02 30.96L152.73 30.96L152.73 30.96Q152.05 30.96 151.74 30.65L151.74 30.65L151.74 30.65Q151.44 30.35 151.44 29.66L151.44 29.66L151.44 20.16L151.44 20.16Q151.44 19.08 151.78 17.68L151.78 17.68L151.78 17.68Q152.12 16.27 152.84 14.40L152.84 14.40L155.97 6.23L155.97 6.23Q156.19 5.62 156.64 5.33L156.64 5.33L156.64 5.33Q157.09 5.04 157.81 5.04L157.81 5.04L167.49 5.04L167.49 5.04Q168.18 5.04 168.63 5.33L168.63 5.33L168.63 5.33Q169.08 5.62 169.29 6.23L169.29 6.23L172.42 14.40L172.42 14.40Q173.14 16.27 173.49 17.68L173.49 17.68L173.49 17.68Q173.83 19.08 173.83 20.16L173.83 20.16L173.83 29.66L173.83 29.66Q173.83 30.35 173.52 30.65L173.52 30.65L173.52 30.65Q173.22 30.96 172.53 30.96L172.53 30.96L167.10 30.96L167.10 30.96Q166.38 30.96 166.03 30.65L166.03 30.65L166.03 30.65Q165.69 30.35 165.69 29.66L165.69 29.66L165.69 24.62L159.32 24.62ZM199.50 30.96L199.50 30.96L190.72 30.96L190.72 30.96Q186.22 30.96 184.04 29.16L184.04 29.16L184.04 29.16Q181.86 27.36 181.86 23.62L181.86 23.62L181.86 12.42L181.86 12.42Q181.86 8.68 184.04 6.86L184.04 6.86L184.04 6.86Q186.22 5.04 190.72 5.04L190.72 5.04L199.50 5.04L199.50 5.04Q200.18 5.04 200.49 5.35L200.49 5.35L200.49 5.35Q200.80 5.65 200.80 6.34L200.80 6.34L200.80 10.69L200.80 10.69Q200.80 11.38 200.49 11.68L200.49 11.68L200.49 11.68Q200.18 11.99 199.50 11.99L199.50 11.99L192.26 11.99L192.26 11.99Q191.15 11.99 190.61 12.44L190.61 12.44L190.61 12.44Q190.07 12.89 190.07 13.79L190.07 13.79L190.07 22.36L190.07 22.36Q190.07 23.26 190.61 23.67L190.61 23.67L190.61 23.67Q191.15 24.08 192.26 24.08L192.26 24.08L199.50 24.08L199.50 24.08Q200.18 24.08 200.49 24.39L200.49 24.39L200.49 24.39Q200.80 24.70 200.80 25.38L200.80 25.38L200.80 29.66L200.80 29.66Q200.80 30.35 200.49 30.65L200.49 30.65L200.49 30.65Q200.18 30.96 199.50 30.96ZM197.52 27.72L197.52 27.36L191.51 27.36L191.51 27.36Q188.27 27.36 187.19 26.39L187.19 26.39L187.19 26.39Q186.11 25.42 186.11 23.08L186.11 23.08L186.11 13.00L186.11 13.00Q186.11 10.62 187.22 9.63L187.22 9.63L187.22 9.63Q188.34 8.64 191.51 8.64L191.51 8.64L197.52 8.64L197.52 8.28L191.51 8.28L191.51 8.28Q188.05 8.28 186.90 9.36L186.90 9.36L186.90 9.36Q185.75 10.44 185.75 13.00L185.75 13.00L185.75 23.08L185.75 23.08Q185.75 25.56 186.88 26.64L186.88 26.64L186.88 26.64Q188.02 27.72 191.51 27.72L191.51 27.72L197.52 27.72ZM221.10 30.96L221.10 30.96L215.27 30.96L215.27 30.96Q214.59 30.96 214.28 30.65L214.28 30.65L214.28 30.65Q213.98 30.35 213.98 29.66L213.98 29.66L213.98 11.99L208.68 11.99L208.68 11.99Q208.00 11.99 207.69 11.68L207.69 11.68L207.69 11.68Q207.39 11.38 207.39 10.69L207.39 10.69L207.39 6.34L207.39 6.34Q207.39 5.65 207.69 5.35L207.69 5.35L207.69 5.35Q208.00 5.04 208.68 5.04L208.68 5.04L227.69 5.04L227.69 5.04Q228.38 5.04 228.68 5.35L228.68 5.35L228.68 5.35Q228.99 5.65 228.99 6.34L228.99 6.34L228.99 10.69L228.99 10.69Q228.99 11.38 228.68 11.68L228.68 11.68L228.68 11.68Q228.38 11.99 227.69 11.99L227.69 11.99L222.40 11.99L222.40 29.66L222.40 29.66Q222.40 30.35 222.09 30.65L222.09 30.65L222.09 30.65Q221.79 30.96 221.10 30.96ZM218.01 8.64L218.01 27.72L218.37 27.72L218.37 8.64L225.75 8.64L225.75 8.28L210.63 8.28L210.63 8.64L218.01 8.64ZM258.44 11.88L258.44 24.16L258.44 24.16Q258.44 25.81 257.95 27.16L257.95 27.16L257.95 27.16Q257.47 28.51 256.23 29.47L256.23 29.47L256.23 29.47Q254.98 30.42 252.81 30.96L252.81 30.96L252.81 30.96Q250.63 31.50 247.28 31.50L247.28 31.50L247.28 31.50Q243.93 31.50 241.74 30.96L241.74 30.96L241.74 30.96Q239.54 30.42 238.30 29.47L238.30 29.47L238.30 29.47Q237.06 28.51 236.57 27.16L236.57 27.16L236.57 27.16Q236.08 25.81 236.08 24.16L236.08 24.16L236.08 11.88L236.08 11.88Q236.08 10.22 236.57 8.87L236.57 8.87L236.57 8.87Q237.06 7.52 238.30 6.55L238.30 6.55L238.30 6.55Q239.54 5.58 241.74 5.04L241.74 5.04L241.74 5.04Q243.93 4.50 247.28 4.50L247.28 4.50L247.28 4.50Q250.63 4.50 252.81 5.04L252.81 5.04L252.81 5.04Q254.98 5.58 256.23 6.55L256.23 6.55L256.23 6.55Q257.47 7.52 257.95 8.87L257.95 8.87L257.95 8.87Q258.44 10.22 258.44 11.88L258.44 11.88ZM254.52 23.33L254.52 23.33L254.52 12.71L254.52 12.71Q254.52 10.55 252.97 9.20L252.97 9.20L252.97 9.20Q251.42 7.85 247.21 7.85L247.21 7.85L247.21 7.85Q243.00 7.85 241.48 9.20L241.48 9.20L241.48 9.20Q239.97 10.55 239.97 12.71L239.97 12.71L239.97 23.33L239.97 23.33Q239.97 25.49 241.48 26.84L241.48 26.84L241.48 26.84Q243.00 28.19 247.21 28.19L247.21 28.19L247.21 28.19Q251.42 28.19 252.97 26.84L252.97 26.84L252.97 26.84Q254.52 25.49 254.52 23.33ZM240.33 23.33L240.33 23.33L240.33 12.71L240.33 12.71Q240.33 10.69 241.77 9.45L241.77 9.45L241.77 9.45Q243.21 8.21 247.21 8.21L247.21 8.21L247.21 8.21Q251.20 8.21 252.68 9.45L252.68 9.45L252.68 9.45Q254.16 10.69 254.16 12.71L254.16 12.71L254.16 23.33L254.16 23.33Q254.16 25.34 252.68 26.59L252.68 26.59L252.68 26.59Q251.20 27.83 247.21 27.83L247.21 27.83L247.21 27.83Q243.21 27.83 241.77 26.59L241.77 26.59L241.77 26.59Q240.33 25.34 240.33 23.33ZM244.26 13.18L244.26 22.86L244.26 22.86Q244.26 23.58 244.80 24.07L244.80 24.07L244.80 24.07Q245.34 24.55 247.28 24.55L247.28 24.55L247.28 24.55Q249.22 24.55 249.76 24.07L249.76 24.07L249.76 24.07Q250.30 23.58 250.30 22.86L250.30 22.86L250.30 13.18L250.30 13.18Q250.30 12.49 249.76 12.01L249.76 12.01L249.76 12.01Q249.22 11.52 247.28 11.52L247.28 11.52L247.28 11.52Q245.34 11.52 244.80 12.01L244.80 12.01L244.80 12.01Q244.26 12.49 244.26 13.18L244.26 13.18ZM271.26 8.64L279.11 8.64L279.11 8.64Q281.02 8.64 281.93 9.68L281.93 9.68L281.93 9.68Q282.85 10.73 282.85 12.38L282.85 12.38L282.85 14.90L282.85 14.90Q282.85 16.88 282.10 17.96L282.10 17.96L282.10 17.96Q281.34 19.04 279.11 19.04L279.11 19.04L271.26 19.04L271.26 8.64ZM277.85 11.52L275.15 11.52L275.15 16.13L277.85 16.13L277.85 16.13Q278.78 16.13 279.11 15.64L279.11 15.64L279.11 15.64Q279.43 15.16 279.43 14.44L279.43 14.44L279.43 13.21L279.43 13.21Q279.43 12.49 279.11 12.01L279.11 12.01L279.11 12.01Q278.78 11.52 277.85 11.52L277.85 11.52ZM270.90 27.72L271.26 27.72L271.26 19.37L281.45 19.37L281.45 19.37Q283.50 19.37 284.47 20.25L284.47 20.25L284.47 20.25Q285.44 21.13 285.44 22.90L285.44 22.90L285.44 27.72L285.80 27.72L285.80 22.90L285.80 22.90Q285.80 21.02 284.72 20.03L284.72 20.03L284.72 20.03Q283.64 19.04 281.45 19.04L281.45 19.04L281.05 19.04L281.05 19.04Q282.35 18.65 282.78 17.59L282.78 17.59L282.78 17.59Q283.21 16.52 283.21 14.87L283.21 14.87L283.21 12.38L283.21 12.38Q283.21 10.62 282.20 9.45L282.20 9.45L282.20 9.45Q281.20 8.28 279.11 8.28L279.11 8.28L270.90 8.28L270.90 27.72ZM273.85 30.96L273.85 30.96L268.31 30.96L268.31 30.96Q267.62 30.96 267.32 30.65L267.32 30.65L267.32 30.65Q267.01 30.35 267.01 29.66L267.01 29.66L267.01 6.34L267.01 6.34Q267.01 5.65 267.32 5.35L267.32 5.35L267.32 5.35Q267.62 5.04 268.31 5.04L268.31 5.04L280.30 5.04L280.30 5.04Q284.33 5.04 285.86 6.71L285.86 6.71L285.86 6.71Q287.39 8.39 287.39 11.05L287.39 11.05L287.39 12.71L287.39 12.71Q287.39 14.22 286.94 15.28L286.94 15.28L286.94 15.28Q286.49 16.34 285.37 16.81L285.37 16.81L285.37 16.81Q287.32 17.03 288.52 18.40L288.52 18.40L288.52 18.40Q289.73 19.76 289.73 22.03L289.73 22.03L289.73 29.66L289.73 29.66Q289.73 30.35 289.42 30.65L289.42 30.65L289.42 30.65Q289.12 30.96 288.43 30.96L288.43 30.96L282.85 30.96L282.85 30.96Q282.17 30.96 281.86 30.65L281.86 30.65L281.86 30.65Q281.56 30.35 281.56 29.66L281.56 29.66L281.56 24.16L281.56 24.16Q281.56 23.36 281.25 22.99L281.25 22.99L281.25 22.99Q280.94 22.61 280.19 22.61L280.19 22.61L275.15 22.61L275.15 29.66L275.15 29.66Q275.15 30.35 274.84 30.65L274.84 30.65L274.84 30.65Q274.54 30.96 273.85 30.96ZM310.90 30.96L310.90 30.96L305.07 30.96L305.07 30.96Q304.38 30.96 304.08 30.65L304.08 30.65L304.08 30.65Q303.77 30.35 303.77 29.66L303.77 29.66L303.77 25.06L298.26 17.68L298.26 17.68Q297.44 16.56 297.17 15.73L297.17 15.73L297.17 15.73Q296.90 14.90 296.90 13.25L296.90 13.25L296.90 6.34L296.90 6.34Q296.90 5.65 297.20 5.35L297.20 5.35L297.20 5.35Q297.51 5.04 298.19 5.04L298.19 5.04L303.74 5.04L303.74 5.04Q304.42 5.04 304.73 5.35L304.73 5.35L304.73 5.35Q305.03 5.65 305.03 6.34L305.03 6.34L305.03 12.24L305.03 12.24Q305.03 12.60 305.07 13.00L305.07 13.00L305.07 13.00Q305.10 13.39 305.36 13.75L305.36 13.75L307.01 16.34L307.01 16.34Q307.19 16.67 307.39 16.81L307.39 16.81L307.39 16.81Q307.59 16.96 307.88 16.96L307.88 16.96L308.24 16.96L308.24 16.96Q308.52 16.96 308.72 16.81L308.72 16.81L308.72 16.81Q308.92 16.67 309.10 16.34L309.10 16.34L310.76 13.75L310.76 13.75Q311.01 13.39 311.04 13.00L311.04 13.00L311.04 13.00Q311.08 12.60 311.08 12.24L311.08 12.24L311.08 6.34L311.08 6.34Q311.08 5.65 311.39 5.35L311.39 5.35L311.39 5.35Q311.69 5.04 312.38 5.04L312.38 5.04L317.74 5.04L317.74 5.04Q318.42 5.04 318.73 5.35L318.73 5.35L318.73 5.35Q319.04 5.65 319.04 6.34L319.04 6.34L319.04 13.25L319.04 13.25Q319.04 14.90 318.75 15.73L318.75 15.73L318.75 15.73Q318.46 16.56 317.67 17.68L317.67 17.68L312.20 25.09L312.20 29.66L312.20 29.66Q312.20 30.35 311.89 30.65L311.89 30.65L311.89 30.65Q311.58 30.96 310.90 30.96ZM308.16 21.56L308.42 21.56L308.42 21.56Q309.24 21.56 309.87 21.20L309.87 21.20L309.87 21.20Q310.50 20.84 311.08 20.05L311.08 20.05L314.68 15.19L314.68 15.19Q315.11 14.62 315.17 13.91L315.17 13.91L315.17 13.91Q315.22 13.21 315.22 12.42L315.22 12.42L315.22 8.28L314.86 8.28L314.86 12.42L314.86 12.42Q314.86 13.18 314.79 13.88L314.79 13.88L314.79 13.88Q314.72 14.58 314.36 15.05L314.36 15.05L310.76 19.91L310.76 19.91Q310.22 20.59 309.66 20.90L309.66 20.90L309.66 20.90Q309.10 21.20 308.42 21.20L308.42 21.20L307.44 21.20L307.44 21.20Q306.83 21.20 306.22 20.92L306.22 20.92L306.22 20.92Q305.61 20.63 305.14 19.91L305.14 19.91L301.65 15.05L301.65 15.05Q301.29 14.51 301.22 13.84L301.22 13.84L301.22 13.84Q301.14 13.18 301.14 12.42L301.14 12.42L301.14 8.28L300.78 8.28L300.78 12.42L300.78 12.42Q300.78 13.21 300.86 13.93L300.86 13.93L300.86 13.93Q300.93 14.65 301.32 15.19L301.32 15.19L304.82 20.05L304.82 20.05Q305.39 20.84 306.02 21.20L306.02 21.20L306.02 21.20Q306.65 21.56 307.44 21.56L307.44 21.56L307.80 21.56L307.80 27.72L308.16 27.72L308.16 21.56Z" transform="rotate(0 160.75999879837036 18)"></path></svg>