<svg xmlns="http://www.w3.org/2000/svg" xmlns:xlink="http://www.w3.org/1999/xlink" width="55.929996490478516" viewBox="3.240000009536743 6.550000190734863 55.929996490478516 23.509998321533203" overflow="visible" style="overflow: visible;"><path stroke="none" fill="#7e9eff" d="M3.24 29.74L3.24 6.84L7.88 6.84L7.88 12.82L22.12 12.82L22.12 6.84L26.78 6.84L26.78 29.74L22.12 29.74L22.12 16.79L7.88 16.79L7.88 29.74L3.24 29.74ZM32.88 26.69L35.35 22.92L35.35 22.92Q36.60 23.63 37.88 24.19L37.88 24.19L37.88 24.19Q39.16 24.76 40.54 25.14L40.54 25.14L40.54 25.14Q41.91 25.53 43.43 25.74L43.43 25.74L43.43 25.74Q44.95 25.94 46.66 25.94L46.66 25.94L46.66 25.94Q48.72 25.94 50.17 25.67L50.17 25.67L50.17 25.67Q51.63 25.40 52.54 24.92L52.54 24.92L52.54 24.92Q53.46 24.45 53.87 23.79L53.87 23.79L53.87 23.79Q54.29 23.13 54.29 22.35L54.29 22.35L54.29 22.35Q54.29 21.11 53.25 20.38L53.25 20.38L53.25 20.38Q52.21 19.66 50.04 19.66L50.04 19.66L50.04 19.66Q49.09 19.66 48.04 19.78L48.04 19.78L48.04 19.78Q46.98 19.91 45.90 20.05L45.90 20.05L45.90 20.05Q44.83 20.20 43.78 20.32L43.78 20.32L43.78 20.32Q42.73 20.45 41.81 20.45L41.81 20.45L41.81 20.45Q40.27 20.45 38.86 20.05L38.86 20.05L38.86 20.05Q37.45 19.66 36.35 18.87L36.35 18.87L36.35 18.87Q35.26 18.08 34.62 16.89L34.62 16.89L34.62 16.89Q33.97 15.70 33.97 14.12L33.97 14.12L33.97 14.12Q33.97 13.18 34.23 12.26L34.23 12.26L34.23 12.26Q34.49 11.34 35.05 10.50L35.05 10.50L35.05 10.50Q35.61 9.65 36.51 8.93L36.51 8.93L36.51 8.93Q37.40 8.20 38.67 7.68L38.67 7.68L38.67 7.68Q39.94 7.15 41.60 6.85L41.60 6.85L41.60 6.85Q43.26 6.55 45.38 6.55L45.38 6.55L45.38 6.55Q46.92 6.55 48.48 6.72L48.48 6.72L48.48 6.72Q50.03 6.88 51.50 7.19L51.50 7.19L51.50 7.19Q52.97 7.50 54.33 7.93L54.33 7.93L54.33 7.93Q55.70 8.36 56.87 8.89L56.87 8.89L54.83 12.64L54.83 12.64Q53.87 12.22 52.75 11.86L52.75 11.86L52.75 11.86Q51.64 11.50 50.42 11.24L50.42 11.24L50.42 11.24Q49.21 10.97 47.91 10.82L47.91 10.82L47.91 10.82Q46.62 10.66 45.27 10.66L45.27 10.66L45.27 10.66Q43.35 10.66 42.11 10.94L42.11 10.94L42.11 10.94Q40.87 11.22 40.14 11.65L40.14 11.65L40.14 11.65Q39.41 12.08 39.12 12.62L39.12 12.62L39.12 12.62Q38.84 13.15 38.84 13.68L38.84 13.68L38.84 13.68Q38.84 14.71 39.76 15.36L39.76 15.36L39.76 15.36Q40.68 16.01 42.57 16.01L42.57 16.01L42.57 16.01Q43.33 16.01 44.32 15.90L44.32 15.90L44.32 15.90Q45.31 15.79 46.40 15.66L46.40 15.66L46.40 15.66Q47.49 15.53 48.63 15.42L48.63 15.42L48.63 15.42Q49.76 15.31 50.83 15.31L50.83 15.31L50.83 15.31Q52.86 15.31 54.42 15.76L54.42 15.76L54.42 15.76Q55.98 16.22 57.03 17.06L57.03 17.06L57.03 17.06Q58.08 17.90 58.63 19.09L58.63 19.09L58.63 19.09Q59.17 20.29 59.17 21.77L59.17 21.77L59.17 21.77Q59.17 23.75 58.25 25.29L58.25 25.29L58.25 25.29Q57.34 26.84 55.65 27.90L55.65 27.90L55.65 27.90Q53.95 28.96 51.57 29.51L51.57 29.51L51.57 29.51Q49.18 30.06 46.25 30.06L46.25 30.06L46.25 30.06Q44.32 30.06 42.47 29.82L42.47 29.82L42.47 29.82Q40.62 29.58 38.93 29.13L38.93 29.13L38.93 29.13Q37.24 28.68 35.71 28.06L35.71 28.06L35.71 28.06Q34.18 27.44 32.88 26.69L32.88 26.69Z" transform="rotate(0 31.204998254776 18.304999351501465)"></path></svg>