<?xml version="1.0" encoding="UTF-8" standalone="no"?>
<svg
   xmlns:dc="http://purl.org/dc/elements/1.1/"
   xmlns:cc="http://creativecommons.org/ns#"
   xmlns:rdf="http://www.w3.org/1999/02/22-rdf-syntax-ns#"
   xmlns:svg="http://www.w3.org/2000/svg"
   xmlns="http://www.w3.org/2000/svg"
   xmlns:sodipodi="http://sodipodi.sourceforge.net/DTD/sodipodi-0.dtd"
   xmlns:inkscape="http://www.inkscape.org/namespaces/inkscape"
   width="130"
   viewBox="0 0 72 49"
   version="1.1"
   id="svg4689"
   sodipodi:docname="HS_logo2.svg"
   inkscape:version="0.92.4 (5da689c313, 2019-01-14)">
  <metadata
     id="metadata4695">
    <rdf:RDF>
      <cc:Work
         rdf:about="">
        <dc:format>image/svg+xml</dc:format>
        <dc:type
           rdf:resource="http://purl.org/dc/dcmitype/StillImage" />
      </cc:Work>
    </rdf:RDF>
  </metadata>
  <defs
     id="defs4693" />
  <sodipodi:namedview
     pagecolor="#ffffff"
     bordercolor="#666666"
     borderopacity="1"
     objecttolerance="10"
     gridtolerance="10"
     guidetolerance="10"
     inkscape:pageopacity="0"
     inkscape:pageshadow="2"
     inkscape:window-width="2560"
     inkscape:window-height="1377"
     id="namedview4691"
     showgrid="false"
     inkscape:zoom="15.069231"
     inkscape:cx="75.133918"
     inkscape:cy="15.377425"
     inkscape:window-x="-8"
     inkscape:window-y="-8"
     inkscape:window-maximized="1"
     inkscape:current-layer="svg4689" />
  <g
     id="g4687"
     transform="matrix(0.63778289,0,0,0.49213988,12.564234,0.53765494)">
    <svg
       data-type="color"
       viewBox="64 66 72 49"
       height="49"
       width="72"
       version="1.1"
       id="svg4685">
      <g
         id="g4683">
        <path
           data-color="1"
           d="M 116,66 V 84.238 L 64,114 V 95.762 Z"
           id="path4677"
           inkscape:connector-curvature="0"
           style="fill:#b5e5ff" />
        <path
           data-color="2"
           d="M 136,95.762 V 114 L 84,84.238 V 66 Z"
           id="path4679"
           inkscape:connector-curvature="0"
           style="fill:#0a0057" />
        <path
           data-color="1"
           d="m 103,115 h -6 v -6 h 6 z"
           id="path4681"
           inkscape:connector-curvature="0"
           style="fill:#b5e5ff" />
      </g>
    </svg>
  </g>
  <path
     inkscape:connector-curvature="0"
     style="overflow:visible;fill:#7e9eff;stroke:none"
     d="m 8.3999817,48.291048 v -22.9 h 4.6400003 v 5.98 h 14.24 v -5.98 h 4.66 v 22.9 h -4.66 v -12.95 h -14.24 v 12.95 z m 29.6400003,-3.05 2.47,-3.77 v 0 q 1.25,0.71 2.53,1.27 v 0 0 q 1.28,0.57 2.66,0.95 v 0 0 q 1.37,0.39 2.89,0.6 v 0 0 q 1.52,0.2 3.23,0.2 v 0 0 q 2.06,0 3.51,-0.27 v 0 0 q 1.46,-0.27 2.37,-0.75 v 0 0 q 0.92,-0.47 1.33,-1.13 v 0 0 q 0.42,-0.66 0.42,-1.44 v 0 0 q 0,-1.24 -1.04,-1.97 v 0 0 q -1.04,-0.72 -3.21,-0.72 v 0 0 q -0.95,0 -2,0.12 v 0 0 q -1.06,0.13 -2.14,0.27 v 0 0 q -1.07,0.15 -2.12,0.27 v 0 0 q -1.05,0.13 -1.97,0.13 v 0 0 q -1.54,0 -2.95,-0.4 v 0 0 q -1.41,-0.39 -2.51,-1.18 v 0 0 q -1.09,-0.79 -1.73,-1.98 v 0 0 q -0.65,-1.19 -0.65,-2.77 v 0 0 q 0,-0.94 0.26,-1.86 v 0 0 q 0.26,-0.92 0.82,-1.76 v 0 0 q 0.56,-0.85 1.46,-1.57 v 0 0 q 0.89,-0.73 2.16,-1.25 v 0 0 q 1.27,-0.53 2.93,-0.83 v 0 0 q 1.66,-0.3 3.78,-0.3 v 0 0 q 1.54,0 3.1,0.17 v 0 0 q 1.55,0.16 3.02,0.47 v 0 0 q 1.47,0.31 2.83,0.74 v 0 0 q 1.37,0.43 2.54,0.96 v 0 l -2.04,3.75 v 0 q -0.96,-0.42 -2.08,-0.78 v 0 0 q -1.11,-0.36 -2.33,-0.62 v 0 0 q -1.21,-0.27 -2.51,-0.42 v 0 0 q -1.29,-0.16 -2.64,-0.16 v 0 0 q -1.92,0 -3.16,0.28 v 0 0 q -1.24,0.28 -1.97,0.71 v 0 0 q -0.73,0.43 -1.02,0.97 v 0 0 q -0.28,0.53 -0.28,1.06 v 0 0 q 0,1.03 0.92,1.68 v 0 0 q 0.92,0.65 2.81,0.65 v 0 0 q 0.76,0 1.75,-0.11 v 0 0 q 0.99,-0.11 2.08,-0.24 v 0 0 q 1.09,-0.13 2.23,-0.24 v 0 0 q 1.13,-0.11 2.2,-0.11 v 0 0 q 2.03,0 3.59,0.45 v 0 0 q 1.56,0.46 2.61,1.3 v 0 0 q 1.05,0.84 1.6,2.03 v 0 0 q 0.54,1.2 0.54,2.68 v 0 0 q 0,1.98 -0.92,3.52 v 0 0 q -0.91,1.55 -2.6,2.61 v 0 0 q -1.7,1.06 -4.08,1.61 v 0 0 q -2.39,0.55 -5.32,0.55 v 0 0 q -1.93,0 -3.78,-0.24 v 0 0 q -1.85,-0.24 -3.54,-0.69 v 0 0 q -1.69,-0.45 -3.22,-1.07 v 0 0 q -1.53,-0.62 -2.83,-1.37 z"
     id="path4707" />
  <path
     style="fill:#3771c8;fill-opacity:1;stroke:#fffdff;stroke-width:0.06636039;stroke-opacity:1"
     d="M 37.427945,36.860962 V 25.446976 h 2.289434 2.289433 v 2.986217 2.986218 h 7.133742 7.133741 v -2.986218 -2.986217 h 2.322614 2.322614 v 11.413986 11.413987 h -2.322614 -2.322614 v -6.470138 -6.470138 h -7.133741 -7.133742 v 6.470138 6.470138 h -2.289433 -2.289434 z"
     id="path4746"
     inkscape:connector-curvature="0"
     transform="translate(-29)" />
  <path
     style="fill:#3771c8;fill-opacity:1;stroke:#fffdff;stroke-width:0.06636039;stroke-opacity:1"
     d="m 78.803647,48.542536 c -3.062719,-0.17477 -5.983499,-0.807819 -8.792751,-1.905736 -1.035407,-0.40466 -2.933977,-1.348277 -2.898542,-1.440618 0.02508,-0.06535 2.345717,-3.616221 2.406898,-3.682859 0.01315,-0.01433 0.06196,0.0053 0.108468,0.04364 0.04651,0.03833 0.562349,0.308521 1.14632,0.600434 3.524749,1.761933 6.455249,2.401518 10.609696,2.315578 1.847018,-0.03821 2.685796,-0.130499 3.74274,-0.411816 1.673394,-0.445391 2.666833,-1.10556 3.120527,-2.073679 0.158858,-0.338979 0.178842,-0.459812 0.178378,-1.078532 -4.64e-4,-0.605444 -0.02192,-0.740279 -0.163782,-1.028586 -0.356441,-0.724417 -1.096124,-1.237465 -2.175981,-1.509273 -0.510266,-0.128438 -0.750186,-0.145514 -2.00632,-0.142801 -1.324356,0.0029 -1.615629,0.02768 -4.058623,0.345902 -2.96031,0.385603 -4.013135,0.459423 -5.043844,0.353654 -3.54984,-0.364279 -5.90795,-2.032385 -6.635747,-4.694066 -0.208182,-0.761361 -0.209116,-2.271139 -0.0019,-3.103452 0.313025,-1.257429 0.886907,-2.239967 1.848417,-3.164658 0.96418,-0.927259 2.01787,-1.534928 3.507899,-2.023025 0.813495,-0.266481 2.34462,-0.588054 3.284788,-0.689885 3.185454,-0.345018 7.328426,0.04983 10.706713,1.020398 1.264196,0.363201 3.293796,1.096662 3.293796,1.19032 0,0.03672 -1.93771,3.590907 -1.985729,3.642262 -0.02639,0.02822 -0.224162,-0.02661 -0.439505,-0.121845 -0.651833,-0.288272 -2.304999,-0.817499 -3.302923,-1.057363 -2.139333,-0.514217 -3.78914,-0.717535 -5.81855,-0.717064 -1.616821,3.75e-4 -2.424591,0.08212 -3.505373,0.354738 -2.010743,0.507191 -2.993058,1.445159 -2.915892,2.784254 0.03521,0.61109 0.181313,0.917519 0.643642,1.349973 1.009516,0.944284 2.400699,1.067259 6.573948,0.581108 4.054087,-0.472269 5.735802,-0.502181 7.531904,-0.133967 3.420758,0.701282 5.354834,2.734082 5.51941,5.80115 0.101533,1.892175 -0.470299,3.585402 -1.67048,4.946387 -1.728476,1.960063 -4.694487,3.189231 -8.626878,3.575134 -0.98473,0.09664 -3.123227,0.134639 -4.180705,0.07429 z"
     id="path4748"
     inkscape:connector-curvature="0"
     transform="translate(-29)" />
  <path
     style="fill:#3771c8;fill-opacity:1;stroke:#fffdff;stroke-width:0.06636039;stroke-opacity:1"
     d="m 41.60865,19.651505 v -4.470044 l 6.277281,-2.771969 c 3.452505,-1.524584 6.328708,-2.7854178 6.391561,-2.8018544 0.06285,-0.016437 2.377812,0.9696514 5.144353,2.1913054 4.054798,1.790527 5.006074,2.233858 4.906295,2.286524 -0.114088,0.06022 -22.017599,9.740041 -22.503819,9.945117 l -0.215671,0.09097 z"
     id="path4750"
     inkscape:connector-curvature="0"
     transform="translate(-29)" />
  <path
     style="fill:#3771c8;fill-opacity:1;stroke:#fffdff;stroke-width:0.06636039;stroke-opacity:1"
     d="M 71.470824,8.0775688 C 69.700661,7.2960644 67.426994,6.291875 66.41823,5.8460371 L 64.584115,5.0354228 69.636709,2.8034285 74.689303,0.57143415 74.70677,2.8277317 c 0.0096,1.2409638 0.0096,3.2495503 0,4.4635256 L 74.6893,9.4984854 Z"
     id="path4752"
     inkscape:connector-curvature="0"
     transform="translate(-29)" />
  <path
     style="fill:#3771c8;fill-opacity:1;stroke:#fffdff;stroke-width:0.06636039;stroke-opacity:1"
     d="m 62.644893,23.190722 v -1.459928 h 1.891271 1.891271 v 1.459928 1.459929 h -1.891271 -1.891271 z"
     id="path4754"
     inkscape:connector-curvature="0"
     transform="translate(-29)" />
</svg>
