<?xml version="1.0" ?><!DOCTYPE svg  PUBLIC '-//W3C//DTD SVG 1.1//EN'  'http://www.w3.org/Graphics/SVG/1.1/DTD/svg11.dtd'><svg enable-background="new 0 0 512 512" height="512px" id="Layer_1" version="1.1" viewBox="0 0 512 512" width="512px" xml:space="preserve" xmlns="http://www.w3.org/2000/svg" xmlns:xlink="http://www.w3.org/1999/xlink"><path d="M205.334,420.369c1.21,0,2.44-0.226,3.613-0.694c4.018-1.634,6.449-5.766,5.933-10.084l-10.974-90.274  l221.941,84.154c2.601,1.014,5.521,0.807,7.99-0.526c2.458-1.332,4.216-3.66,4.807-6.401l37.561-171.552  c0.592-2.685,0-5.501-1.623-7.717c-1.616-2.225-4.112-3.652-6.854-3.905l-255.466-24.353l35.637-84.013  c1.577-3.718,0.657-8.027-2.291-10.787c-2.957-2.76-7.323-3.371-10.919-1.54L40.828,191.138c-2.535,1.286-4.375,3.642-5.013,6.42  c-0.638,2.77-0.009,5.689,1.708,7.961l160.149,211.056C199.531,419.017,202.395,420.369,205.334,420.369z M455.11,231.478  L422.243,381.56l-226.392-85.844c-3.163-1.202-6.693-0.658-9.342,1.407c-2.647,2.085-4.018,5.39-3.614,8.731l8.608,70.767  L59.801,203.07l160.112-81.319l-30.473,71.837c-1.192,2.825-0.975,6.045,0.591,8.674c1.568,2.628,4.301,4.355,7.352,4.647  L455.11,231.478z" fill="#231F20"/></svg>