<?xml version="1.0" encoding="utf-8"?>
<!-- Generator: Adobe Illustrator 16.0.0, SVG Export Plug-In . SVG Version: 6.00 Build 0)  -->
<!DOCTYPE svg PUBLIC "-//W3C//DTD SVG 1.1//EN" "http://www.w3.org/Graphics/SVG/1.1/DTD/svg11.dtd">
<svg version="1.1" id="레이어_1" xmlns="http://www.w3.org/2000/svg" xmlns:xlink="http://www.w3.org/1999/xlink" x="0px"
	 y="0px" width="16px" height="16px" viewBox="0 0 16 16" enable-background="new 0 0 16 16" xml:space="preserve">
<g id="underline">
	<rect x="3" y="1" width="4" height="1"/>
	<rect x="10" y="1" width="3" height="1"/>
	<polygon points="6,11 4,10.5 4,1 6,1 	"/>
	<polygon points="12,10.415 11,11 11,1 12,1 	"/>
	<rect x="3" y="14" width="10" height="1"/>
	<g>
		<g>
			<g>
				<path d="M5.001,10.5c-0.077,3.577,7.075,3.198,6.999-0.227c-0.016-0.645-1.016-0.646-1,0c0.049,2.18-5.045,2.369-4.999,0.227
					C6.016,9.854,5.016,9.855,5.001,10.5L5.001,10.5z"/>
			</g>
		</g>
		<g>
			<g>
				<path d="M4.041,10.633c0.268,1.807,2.609,2.362,4.127,2.389c0.645,0.011,0.645-0.989,0-1c-1.09-0.02-2.967-0.328-3.164-1.653
					C4.91,9.73,3.947,10.002,4.041,10.633L4.041,10.633z"/>
			</g>
		</g>
	</g>
</g>
</svg>
