<?xml version="1.0" encoding="utf-8"?>
<!-- Generator: Adobe Illustrator 16.0.0, SVG Export Plug-In . SVG Version: 6.00 Build 0)  -->
<!DOCTYPE svg PUBLIC "-//W3C//DTD SVG 1.1//EN" "http://www.w3.org/Graphics/SVG/1.1/DTD/svg11.dtd">
<svg version="1.1" id="레이어_1" xmlns="http://www.w3.org/2000/svg" xmlns:xlink="http://www.w3.org/1999/xlink" x="0px"
	 y="0px" width="16px" height="16px" viewBox="0 0 16 16" enable-background="new 0 0 16 16" xml:space="preserve">
<g id="레이어_8">
	<g>
		<rect x="5" y="7" transform="matrix(1 -0.0015 0.0015 1 -0.011 0.0103)" width="4" height="1"/>
		<rect x="3" y="1" width="5" height="1"/>
		<rect x="4" y="2" width="2" height="13"/>
		<rect x="3" y="14" width="6" height="1"/>
		<g>
			<g>
				<path d="M8,2c1.413,0.02,2.148,1.043,2.354,2.331C10.512,5.314,10.137,7,8.875,7c-0.645,0-0.645,1,0,1
					c1.718,0,2.684-1.957,2.514-3.502C11.178,2.59,10.041,1.028,8,1C7.355,0.991,7.355,1.991,8,2L8,2z"/>
			</g>
		</g>
		<g>
			<g>
				<path d="M8.844,8c2.936,0.164,3.28,5.918,0.094,6c-0.644,0.018-0.645,1.018,0,1c4.502-0.115,4.129-7.764-0.094-8
					C8.199,6.964,8.203,7.964,8.844,8L8.844,8z"/>
			</g>
		</g>
		<g>
			<g>
				<path d="M8.93,2.19c1.028,0.341,1.99,1.118,2.047,2.26c0.051,1.013-0.313,1.861-1.229,2.347C9.178,7.1,9.684,7.963,10.252,7.661
					c1.245-0.66,1.742-1.85,1.725-3.21c-0.021-1.604-1.344-2.748-2.781-3.224C8.582,1.023,8.32,1.989,8.93,2.19L8.93,2.19z"/>
			</g>
		</g>
		<g>
			<g>
				<path d="M10.078,8.432c1.332,0.702,2.152,1.949,1.89,3.495c-0.245,1.444-1.501,1.994-2.827,2.073c-0.641,0.038-0.645,1.038,0,1
					c1.935-0.115,3.244-0.938,3.791-2.809c0.555-1.895-0.733-3.772-2.35-4.624C10.014,7.268,9.507,8.131,10.078,8.432L10.078,8.432z
					"/>
			</g>
		</g>
	</g>
</g>
</svg>
