<?xml version="1.0" encoding="utf-8"?>
<!-- Generator: Adobe Illustrator 16.0.0, SVG Export Plug-In . SVG Version: 6.00 Build 0)  -->
<!DOCTYPE svg PUBLIC "-//W3C//DTD SVG 1.1//EN" "http://www.w3.org/Graphics/SVG/1.1/DTD/svg11.dtd">
<svg version="1.1" id="Layer_1" xmlns="http://www.w3.org/2000/svg" xmlns:xlink="http://www.w3.org/1999/xlink" x="0px" y="0px"
	 width="16px" height="16px" viewBox="0 0 16 16" enable-background="new 0 0 16 16" xml:space="preserve">
<path d="M10.964,3.433c0,0-0.065-0.107-0.188-0.308c-0.062-0.112-0.139-0.214-0.227-0.313c-0.08-0.112-0.189-0.235-0.339-0.364
	C9.932,2.185,9.536,1.901,9.005,1.745C8.748,1.653,8.454,1.579,8.139,1.57C7.832,1.539,7.492,1.59,7.105,1.61
	c-0.664,0.103-1.437,0.325-1.94,0.833C4.653,3.011,4.55,3.879,4.78,4.557c0.066,0.299,0.523,0.728,0.688,0.785
	C5.674,5.458,5.937,5.63,6.046,5.693c0.07,0.043,0.14,0.083,0.205,0.133l0.258,0.142C6.861,6.171,7.21,6.292,7.688,6.452
	C8.059,6.576,8.55,6.714,9.04,6.894c0.96,0.34,2.13,0.89,2.899,1.833c0.821,1.061,0.93,2.265,0.625,3.34
	c-0.025,0.106-0.061,0.228-0.133,0.379c-0.078,0.146-0.093,0.267-0.201,0.438l-0.188,0.289l-0.298,0.331
	c-0.398,0.378-0.844,0.611-1.286,0.802c-0.448,0.188-0.881,0.303-1.347,0.365c-0.204,0.021-0.404,0.041-0.602,0.061
	c-0.218,0.006-0.433,0.01-0.644,0.015c-0.823-0.019-1.615-0.253-2.184-0.479c-0.331-0.164-0.689-0.353-0.877-0.492
	c-0.259-0.182-0.484-0.357-0.658-0.58c-0.358-0.438-0.435-0.939-0.403-1.232c0.051-0.301,0.126-0.439,0.126-0.439h0.598
	c0,0,0.088,0.112,0.19,0.278c0.125,0.163,0.254,0.347,0.467,0.583c0.096,0.126,0.245,0.268,0.396,0.418
	c0.219,0.204,0.385,0.254,0.595,0.375c0.558,0.232,1.106,0.408,1.793,0.45c0.166,0.002,0.336,0.003,0.509,0.005
	c0.193-0.017,0.393-0.031,0.592-0.046c0.338-0.042,0.734-0.094,1.092-0.217c0.358-0.124,0.703-0.321,0.972-0.56
	c0.054-0.059,0.11-0.113,0.171-0.168l0.193-0.285c0.014-0.021,0.06-0.131,0.078-0.196c0.029-0.06,0.051-0.167,0.063-0.293
	c0.092-0.761-0.313-1.64-0.752-2.099c-0.555-0.555-1.374-0.724-2.332-0.886C8.015,8.799,7.53,8.699,6.947,8.521
	C6.475,8.373,5.894,8.118,5.406,7.799L5.037,7.55c-0.128-0.102-0.25-0.217-0.37-0.327c-0.292-0.222-0.335-0.435-0.473-0.66
	C3.753,5.874,3.717,5.452,3.575,4.829c-0.15-1.164,0.316-2.248,1.031-2.9C5.374,1.242,6.24,1,7.053,0.883
	c0.721-0.074,1.537-0.06,2.171,0.099c0.653,0.165,1.188,0.458,1.569,0.768c0.38,0.275,0.687,0.657,0.806,0.82
	c0.14,0.19,0.213,0.292,0.213,0.292L10.964,3.433z"/>
<line fill="none" stroke="#000000" stroke-miterlimit="10" x1="11.4" y1="1.586" x2="11.4" y2="5.086"/>
<line fill="none" stroke="#000000" stroke-miterlimit="10" x1="4.016" y1="10.633" x2="4.016" y2="14.133"/>
<line fill="none" stroke="#000000" stroke-miterlimit="10" x1="2.25" y1="7.5" x2="13.75" y2="7.5"/>
<line fill="none" stroke="#FFFFFF" stroke-width="0.5" stroke-miterlimit="10" x1="2.25" y1="6.75" x2="13.75" y2="6.75"/>
<line fill="none" stroke="#FFFFFF" stroke-width="0.5" stroke-miterlimit="10" x1="2.25" y1="8.25" x2="13.75" y2="8.25"/>
</svg>
